<svg xmlns="http://www.w3.org/2000/svg" viewBox="0 0 1060 130" width="1060" height="130" fill="none">

  <!-- Background -->
  <rect width="1060" height="130" fill="#f8f9fa" rx="12"/>

  <!-- Card 1 -->
  <g>
    <rect x="16" y="16" width="152" height="100" rx="8" fill="#ffffff" stroke="#dadce0" stroke-width="1"/>
    <rect x="16" y="16" width="152" height="32" rx="8" fill="#ea4335"/>
    <rect x="16" y="36" width="152" height="12" fill="#ea4335"/>
    <text x="92" y="38" text-anchor="middle" font-family="Roboto, -apple-system, sans-serif" font-size="12" font-weight="500" fill="#ffffff">Challenge Concept</text>
    <text x="92" y="68" text-anchor="middle" font-family="Roboto, -apple-system, sans-serif" font-size="11" fill="#5f6368">Sharpen the idea</text>
    <rect x="42" y="88" width="100" height="18" rx="9" fill="#fce8e6"/>
    <text x="92" y="101" text-anchor="middle" font-family="Roboto, -apple-system, sans-serif" font-size="10" font-weight="500" fill="#c5221f">CLARITY</text>
  </g>

  <!-- Arrow 1→2 -->
  <path d="M168 66 L184 66" stroke="#dadce0" stroke-width="1.5"/>
  <path d="M182 62 L188 66 L182 70" fill="#dadce0"/>

  <!-- Card 2 -->
  <g>
    <rect x="190" y="16" width="152" height="100" rx="8" fill="#ffffff" stroke="#dadce0" stroke-width="1"/>
    <rect x="190" y="16" width="152" height="32" rx="8" fill="#fbbc04"/>
    <rect x="190" y="36" width="152" height="12" fill="#fbbc04"/>
    <text x="266" y="38" text-anchor="middle" font-family="Roboto, -apple-system, sans-serif" font-size="12" font-weight="500" fill="#ffffff">Motion Spec</text>
    <text x="266" y="68" text-anchor="middle" font-family="Roboto, -apple-system, sans-serif" font-size="11" fill="#5f6368">How things move</text>
    <rect x="216" y="88" width="100" height="18" rx="9" fill="#fef7e0"/>
    <text x="266" y="101" text-anchor="middle" font-family="Roboto, -apple-system, sans-serif" font-size="10" font-weight="500" fill="#e37400">SPEC DOC</text>
  </g>

  <!-- Arrow 2→3 -->
  <path d="M342 66 L358 66" stroke="#dadce0" stroke-width="1.5"/>
  <path d="M356 62 L362 66 L356 70" fill="#dadce0"/>

  <!-- Card 3 -->
  <g>
    <rect x="364" y="16" width="152" height="100" rx="8" fill="#ffffff" stroke="#dadce0" stroke-width="1"/>
    <rect x="364" y="16" width="152" height="32" rx="8" fill="#9334e6"/>
    <rect x="364" y="36" width="152" height="12" fill="#9334e6"/>
    <text x="440" y="38" text-anchor="middle" font-family="Roboto, -apple-system, sans-serif" font-size="12" font-weight="500" fill="#ffffff">Static Frame</text>
    <text x="440" y="68" text-anchor="middle" font-family="Roboto, -apple-system, sans-serif" font-size="11" fill="#5f6368">Detailed design</text>
    <rect x="390" y="88" width="100" height="18" rx="9" fill="#f3e8fd"/>
    <text x="440" y="101" text-anchor="middle" font-family="Roboto, -apple-system, sans-serif" font-size="10" font-weight="500" fill="#7627bb">FOUNDATION</text>
  </g>

  <!-- Arrow 3→4 -->
  <path d="M516 66 L532 66" stroke="#dadce0" stroke-width="1.5"/>
  <path d="M530 62 L536 66 L530 70" fill="#dadce0"/>

  <!-- Card 4 -->
  <g>
    <rect x="538" y="16" width="152" height="100" rx="8" fill="#ffffff" stroke="#dadce0" stroke-width="1"/>
    <rect x="538" y="16" width="152" height="32" rx="8" fill="#34a853"/>
    <rect x="538" y="36" width="152" height="12" fill="#34a853"/>
    <text x="614" y="38" text-anchor="middle" font-family="Roboto, -apple-system, sans-serif" font-size="12" font-weight="500" fill="#ffffff">Build Order</text>
    <text x="614" y="68" text-anchor="middle" font-family="Roboto, -apple-system, sans-serif" font-size="11" fill="#5f6368">Storytelling order</text>
    <rect x="564" y="88" width="100" height="18" rx="9" fill="#e6f4ea"/>
    <text x="614" y="101" text-anchor="middle" font-family="Roboto, -apple-system, sans-serif" font-size="10" font-weight="500" fill="#1e8e3e">TASK LIST</text>
  </g>

  <!-- Arrow 4→5 -->
  <path d="M690 66 L706 66" stroke="#dadce0" stroke-width="1.5"/>
  <path d="M704 62 L710 66 L704 70" fill="#dadce0"/>

  <!-- Card 5 -->
  <g>
    <rect x="712" y="16" width="152" height="100" rx="8" fill="#ffffff" stroke="#dadce0" stroke-width="1"/>
    <rect x="712" y="16" width="152" height="32" rx="8" fill="#1a73e8"/>
    <rect x="712" y="36" width="152" height="12" fill="#1a73e8"/>
    <text x="788" y="38" text-anchor="middle" font-family="Roboto, -apple-system, sans-serif" font-size="12" font-weight="500" fill="#ffffff">Build Motion</text>
    <text x="788" y="68" text-anchor="middle" font-family="Roboto, -apple-system, sans-serif" font-size="11" fill="#5f6368">A finished animation</text>
    <rect x="738" y="88" width="100" height="18" rx="9" fill="#e8f0fe"/>
    <text x="788" y="101" text-anchor="middle" font-family="Roboto, -apple-system, sans-serif" font-size="10" font-weight="500" fill="#1967d2">ANIMATION</text>
  </g>

  <!-- Arrow 5→6 -->
  <path d="M864 66 L880 66" stroke="#dadce0" stroke-width="1.5"/>
  <path d="M878 62 L884 66 L878 70" fill="#dadce0"/>

  <!-- Card 6 -->
  <g>
    <rect x="886" y="16" width="152" height="100" rx="8" fill="#ffffff" stroke="#dadce0" stroke-width="1" stroke-dasharray="4 2"/>
    <rect x="886" y="16" width="152" height="32" rx="8" fill="#f1f3f4"/>
    <rect x="886" y="36" width="152" height="12" fill="#f1f3f4"/>
    <text x="962" y="38" text-anchor="middle" font-family="Roboto, -apple-system, sans-serif" font-size="12" font-weight="500" fill="#5f6368">Playback Review</text>
    <text x="962" y="68" text-anchor="middle" font-family="Roboto, -apple-system, sans-serif" font-size="11" fill="#5f6368">Confidence it's right</text>
    <rect x="912" y="88" width="100" height="18" rx="9" fill="#f1f3f4"/>
    <text x="962" y="101" text-anchor="middle" font-family="Roboto, -apple-system, sans-serif" font-size="10" font-weight="500" fill="#80868b">CONFIRM</text>
  </g>
</svg>
